<svg width="1024" height="1024" viewBox="0 0 1024 1024" fill="none" xmlns="http://www.w3.org/2000/svg">
<path d="M286.511 512.301L301.452 485.323L306.433 545.887L287.064 526.066C283.744 522.212 283.744 516.706 286.511 512.301Z" fill="#16E4B8"/>
<path d="M301.452 485.323L301.951 485.282C301.933 485.062 301.773 484.88 301.558 484.834C301.342 484.787 301.122 484.888 301.015 485.08L301.452 485.323ZM286.511 512.301L286.934 512.567L286.942 512.556L286.948 512.543L286.511 512.301ZM287.064 526.066L286.685 526.392L286.696 526.404L286.707 526.415L287.064 526.066ZM306.433 545.887L306.075 546.236C306.223 546.387 306.449 546.429 306.64 546.342C306.832 546.254 306.948 546.056 306.931 545.846L306.433 545.887ZM301.452 485.323L301.015 485.08L286.073 512.059L286.511 512.301L286.948 512.543L301.89 485.565L301.452 485.323ZM286.511 512.301L286.087 512.035C283.225 516.592 283.197 522.344 286.685 526.392L287.064 526.066L287.443 525.74C284.29 522.08 284.263 516.82 286.934 512.567L286.511 512.301ZM287.064 526.066L286.707 526.415L306.075 546.236L306.433 545.887L306.791 545.538L287.422 525.716L287.064 526.066ZM306.433 545.887L306.931 545.846L301.951 485.282L301.452 485.323L300.954 485.363L305.935 545.928L306.433 545.887Z" fill="#16E4B8"/>
<path d="M342.957 471.558L361.219 489.177L301.452 485.323L330.229 470.457C334.102 468.805 339.083 468.805 342.957 471.558Z" fill="#0084D4"/>
<path d="M361.219 489.177L361.186 489.676C361.395 489.689 361.591 489.57 361.676 489.379C361.761 489.187 361.717 488.962 361.566 488.817L361.219 489.177ZM342.957 471.558L343.304 471.198L343.277 471.172L343.247 471.15L342.957 471.558ZM330.229 470.457L330.033 469.997L330.016 470.004L329.999 470.012L330.229 470.457ZM301.452 485.323L301.223 484.878C301.023 484.982 300.917 485.205 300.963 485.425C301.009 485.645 301.195 485.807 301.42 485.821L301.452 485.323ZM361.219 489.177L361.566 488.817L343.304 471.198L342.957 471.558L342.609 471.918L360.871 489.536L361.219 489.177ZM342.957 471.558L343.247 471.15C339.204 468.277 334.034 468.291 330.033 469.997L330.229 470.457L330.424 470.917C334.171 469.319 338.962 469.332 342.667 471.965L342.957 471.558ZM330.229 470.457L329.999 470.012L301.223 484.878L301.452 485.323L301.681 485.767L330.458 470.901L330.229 470.457ZM301.452 485.323L301.42 485.821L361.186 489.676L361.219 489.177L361.251 488.678L301.485 484.824L301.452 485.323Z" fill="#0084D4"/>
<path d="M374.5 507.346V532.122C373.947 534.875 372.286 537.078 368.966 538.179H355.356L301.452 485.323H351.258C357.898 485.323 359.005 486.974 362.325 490.278L371.18 499.087C373.393 501.84 374.5 503.492 374.5 507.346Z" fill="#16E4B8"/>
<path d="M374.5 532.122H375V532.172L374.99 532.221L374.5 532.122ZM371.18 499.087L371.532 498.733L371.552 498.752L371.569 498.774L371.18 499.087ZM362.325 490.278L361.973 490.632L361.973 490.632L362.325 490.278ZM301.452 485.323L301.102 485.68C300.957 485.537 300.913 485.321 300.99 485.133C301.066 484.945 301.249 484.823 301.452 484.823V485.323ZM355.356 538.179V538.679H355.152L355.006 538.536L355.356 538.179ZM368.966 538.179L369.124 538.653L369.047 538.679H368.966V538.179ZM374.5 532.122H374V507.346H374.5H375V532.122H374.5ZM374.5 507.346H374C374 505.471 373.732 504.167 373.213 503.008C372.689 501.834 371.898 500.778 370.79 499.4L371.18 499.087L371.569 498.774C372.675 500.149 373.544 501.295 374.126 502.6C374.715 503.917 375 505.367 375 507.346H374.5ZM371.18 499.087L370.827 499.442L361.973 490.632L362.325 490.278L362.678 489.923L371.532 498.733L371.18 499.087ZM362.325 490.278L361.973 490.632C360.28 488.948 359.239 487.783 357.798 487.001C356.382 486.232 354.542 485.823 351.258 485.823V485.323V484.823C354.614 484.823 356.648 485.239 358.275 486.122C359.878 486.992 361.051 488.304 362.678 489.923L362.325 490.278ZM351.258 485.323V485.823H301.452V485.323V484.823H351.258V485.323ZM301.452 485.323L301.802 484.966L355.706 537.822L355.356 538.179L355.006 538.536L301.102 485.68L301.452 485.323ZM355.356 538.179V537.679H368.966V538.179V538.679H355.356V538.179ZM368.966 538.179L368.809 537.704C371.953 536.661 373.491 534.607 374.01 532.024L374.5 532.122L374.99 532.221C374.403 535.144 372.62 537.494 369.124 538.653L368.966 538.179Z" fill="#16E4B8"/>
<path d="M323.588 558H348.491C351.258 557.449 353.471 555.798 354.578 552.494L355.356 538.179L301.452 485.323V534.875C301.452 541.482 303.113 542.584 306.433 545.887L315.287 554.696C318.054 556.899 319.714 558 323.588 558Z" fill="#0084D4"/>
<path d="M348.491 558V558.5H348.54L348.588 558.49L348.491 558ZM315.287 554.696L314.935 555.051L314.954 555.07L314.976 555.088L315.287 554.696ZM306.433 545.887L306.08 546.241L306.08 546.241L306.433 545.887ZM301.452 485.323L301.802 484.966C301.659 484.825 301.444 484.784 301.259 484.862C301.073 484.939 300.952 485.121 300.952 485.323H301.452ZM355.356 538.179L355.855 538.206L355.868 537.98L355.706 537.822L355.356 538.179ZM354.578 552.494L355.052 552.653C355.066 552.61 355.075 552.566 355.077 552.521L354.578 552.494ZM348.491 558V557.5H323.588V558V558.5H348.491V558ZM323.588 558V557.5C321.703 557.5 320.391 557.233 319.225 556.717C318.045 556.195 316.983 555.407 315.599 554.305L315.287 554.696L314.976 555.088C316.358 556.188 317.51 557.052 318.82 557.631C320.144 558.217 321.6 558.5 323.588 558.5V558ZM315.287 554.696L315.64 554.342L306.786 545.533L306.433 545.887L306.08 546.241L314.935 555.051L315.287 554.696ZM306.433 545.887L306.786 545.533C305.092 543.848 303.922 542.813 303.136 541.38C302.364 539.972 301.952 538.142 301.952 534.875H301.452H300.952C300.952 538.215 301.371 540.24 302.259 541.86C303.134 543.455 304.453 544.622 306.08 546.241L306.433 545.887ZM301.452 534.875H301.952V485.323H301.452H300.952V534.875H301.452ZM301.452 485.323L301.102 485.68L355.006 538.536L355.356 538.179L355.706 537.822L301.802 484.966L301.452 485.323ZM355.356 538.179L354.857 538.152L354.079 552.467L354.578 552.494L355.077 552.521L355.855 538.206L355.356 538.179ZM354.578 552.494L354.104 552.335C353.057 555.461 350.992 556.992 348.393 557.51L348.491 558L348.588 558.49C351.523 557.906 353.886 556.134 355.052 552.653L354.578 552.494Z" fill="#0084D4"/>
<path d="M420.35 557V466H479.63V480.17H437.9V504.48H471.44V518.26H437.9V557H420.35ZM488.019 557V466H505.569V557H488.019ZM541.647 558.56C536.36 558.56 531.853 557.433 528.127 555.18C524.4 552.927 521.54 549.59 519.547 545.17C517.553 540.663 516.557 535.16 516.557 528.66V492.52H533.977V527.1C533.977 532.473 535.06 536.59 537.227 539.45C539.48 542.31 542.947 543.74 547.627 543.74C550.66 543.74 553.303 543.047 555.557 541.66C557.897 540.187 559.717 538.107 561.017 535.42C562.317 532.733 562.967 529.527 562.967 525.8V492.52H580.517V557H565.567L564.007 546.73H563.487C561.493 550.37 558.677 553.273 555.037 555.44C551.483 557.52 547.02 558.56 541.647 558.56ZM620.985 557C616.391 557 612.361 556.307 608.895 554.92C605.515 553.447 602.871 551.063 600.965 547.77C599.058 544.39 598.105 539.797 598.105 533.99V506.56H587.055V492.52H598.105L600.055 474.97H615.655V492.52H632.815V506.56H615.655V534.25C615.655 537.37 616.305 539.537 617.605 540.75C618.905 541.877 621.115 542.44 624.235 542.44H632.425V557H620.985ZM639.992 557V466H657.542V557H639.992ZM679.97 583L694.66 549.72H691.02L664.63 492.52H683.74L702.33 534.38H702.85L719.49 492.52H738.21L698.56 583H679.97Z" fill="white"/>
</svg>
