<svg width="120" height="120" viewBox="0 0 120 120" fill="none" xmlns="http://www.w3.org/2000/svg">
<path d="M60 60.5005L44.9999 78.3424L4.99996 52.8539L17.842 34.7285" stroke="#BABABA" stroke-width="3" stroke-linecap="round" stroke-linejoin="round"/>
<path d="M102.6 34.1003L114.982 52.5707L73.3504 80.3249L61.2 60.5001" stroke="#BABABA" stroke-width="3" stroke-linecap="round" stroke-linejoin="round"/>
<path d="M105.216 59.5796V80.4073C105.214 82.1413 104.754 83.8444 103.882 85.3456C103.01 86.8468 101.757 88.0935 100.248 88.9605L65.4718 108.737C63.9613 109.604 62.2479 110.061 60.5038 110.061C58.7596 110.061 57.0462 109.604 55.5357 108.737L20.7596 88.9605C19.2507 88.0935 17.9973 86.8468 17.1253 85.3456C16.2534 83.8444 15.7934 82.1413 15.7916 80.4073V60.6313" stroke="#BABABA" stroke-width="3" stroke-linecap="round" stroke-linejoin="round"/>
<path d="M17.8713 34.8122C18.6586 33.8003 19.6386 32.9466 20.7597 32.3025L55.5358 12.5264C57.0462 11.6585 58.7596 11.2017 60.5038 11.2017C62.2479 11.2017 63.9613 11.6585 65.4718 12.5264L100.248 32.3025C100.918 32.6876 101.538 33.1476 102.096 33.6716" stroke="#BABABA" stroke-width="3" stroke-linecap="round" stroke-linejoin="round"/>
<path d="M18.9111 35.3906L60.5038 59.5797L102.096 34.3389" stroke="#BABABA" stroke-width="3" stroke-linecap="round" stroke-linejoin="round"/>
<path d="M60.5038 110.061V59.5796" stroke="#BABABA" stroke-width="3" stroke-linecap="round" stroke-linejoin="round"/>
</svg>
