<svg width="20" height="20" viewBox="0 0 20 20" fill="none" xmlns="http://www.w3.org/2000/svg">
<g clip-path="url(#clip0_1905_1952)">
<path d="M18.2857 3.28564H1.71429C0.846409 3.28564 0.142857 3.9892 0.142857 4.85707V15.1428C0.142857 16.0107 0.846409 16.7142 1.71429 16.7142H18.2857C19.1536 16.7142 19.8571 16.0107 19.8571 15.1428V4.85707C19.8571 3.9892 19.1536 3.28564 18.2857 3.28564Z" fill="white" stroke="#BABABA" stroke-width="0.5"/>
<path fill-rule="evenodd" clip-rule="evenodd" d="M10.1127 13.0748C9.43183 13.6623 8.54857 14.017 7.58346 14.017C5.42991 14.017 3.68414 12.251 3.68414 10.0725C3.68414 7.89396 5.42991 6.12793 7.58346 6.12793C8.54857 6.12793 9.43183 6.48264 10.1127 7.07024C10.7936 6.48264 11.6769 6.12793 12.642 6.12793C14.7955 6.12793 16.5413 7.89396 16.5413 10.0725C16.5413 12.251 14.7955 14.017 12.642 14.017C11.6769 14.017 10.7936 13.6623 10.1127 13.0748Z" fill="#ED0006"/>
<path fill-rule="evenodd" clip-rule="evenodd" d="M10.1127 13.0748C10.9511 12.3512 11.4827 11.2747 11.4827 10.0725C11.4827 8.8703 10.9511 7.79373 10.1127 7.07024C10.7936 6.48264 11.6769 6.12793 12.642 6.12793C14.7955 6.12793 16.5413 7.89396 16.5413 10.0725C16.5413 12.251 14.7955 14.017 12.642 14.017C11.6769 14.017 10.7936 13.6623 10.1127 13.0748Z" fill="#F9A000"/>
<path fill-rule="evenodd" clip-rule="evenodd" d="M10.1127 7.07031C10.9511 7.79383 11.4828 8.87037 11.4828 10.0726C11.4828 11.2747 10.9511 12.3513 10.1127 13.0748C9.27437 12.3513 8.74274 11.2747 8.74274 10.0726C8.74274 8.87037 9.27437 7.79383 10.1127 7.07031Z" fill="#FF5E00"/>
</g>
<defs>
<clipPath id="clip0_1905_1952">
<rect width="20" height="20" fill="white"/>
</clipPath>
</defs>
</svg>
