<svg width="20" height="20" viewBox="0 0 20 20" fill="none" xmlns="http://www.w3.org/2000/svg">
<g clip-path="url(#clip0_1905_1957)">
<path d="M18.6207 3.27588H1.37931C0.712761 3.27588 0.172415 3.81622 0.172415 4.48278V15.5173C0.172415 16.1838 0.712761 16.7242 1.37931 16.7242H18.6207C19.2872 16.7242 19.8276 16.1838 19.8276 15.5173V4.48278C19.8276 3.81622 19.2872 3.27588 18.6207 3.27588Z" fill="white" stroke="#BABABA" stroke-width="0.5"/>
<path d="M8.87986 12.5632H7.54831L8.38117 7.73535H9.71266L8.87986 12.5632Z" fill="#15195A"/>
<path d="M13.7069 7.8535C13.4442 7.75581 13.0277 7.64795 12.5126 7.64795C11.1976 7.64795 10.2717 8.30533 10.266 9.24516C10.255 9.93857 10.9289 10.3237 11.433 10.5549C11.9481 10.7912 12.1232 10.9454 12.1232 11.156C12.118 11.4794 11.707 11.6285 11.3236 11.6285C10.792 11.6285 10.5071 11.5516 10.0742 11.3717L9.89893 11.2946L9.71259 12.3783C10.0249 12.5117 10.6003 12.6301 11.1976 12.6353C12.5948 12.6353 13.5044 11.9881 13.5151 10.9865C13.5204 10.4369 13.1646 10.0158 12.3974 9.67167C11.9317 9.45078 11.6465 9.30181 11.6465 9.07581C11.652 8.87033 11.8878 8.65988 12.4135 8.65988C12.8463 8.64957 13.1644 8.74712 13.4053 8.84474L13.5258 8.89602L13.7069 7.8535Z" fill="#15195A"/>
<path fill-rule="evenodd" clip-rule="evenodd" d="M16.0903 7.73535H17.1202L18.1944 12.5631H16.9616C16.9616 12.5631 16.8409 12.0084 16.8027 11.8389H15.0931C15.0437 11.9672 14.8136 12.5631 14.8136 12.5631H13.4165L15.3943 8.1359C15.5313 7.82259 15.7727 7.73535 16.0903 7.73535ZM16.0082 9.50208C16.0082 9.50208 15.5862 10.5755 15.4766 10.8528H16.5834C16.5286 10.6115 16.2764 9.45583 16.2764 9.45583L16.1834 9.03987C16.1442 9.14697 16.0876 9.29425 16.0493 9.39359C16.0234 9.4609 16.006 9.50621 16.0082 9.50208Z" fill="#15195A"/>
<path fill-rule="evenodd" clip-rule="evenodd" d="M1.77893 7.73535H3.92124C4.21165 7.74552 4.44728 7.83283 4.52393 8.14118L4.98952 10.3594L4.98965 10.3598L5.13214 11.0275L6.43617 7.73535H7.84417L5.75121 12.5581H4.34314L3.15633 8.36311C2.74685 8.13866 2.27952 7.95814 1.75701 7.8329L1.77893 7.73535Z" fill="#15195A"/>
</g>
<defs>
<clipPath id="clip0_1905_1957">
<rect width="20" height="20" fill="white"/>
</clipPath>
</defs>
</svg>
