<svg width="24" height="24" viewBox="0 0 24 24" fill="none" xmlns="http://www.w3.org/2000/svg">
<path d="M12 2L3 9V20C3 20.5304 3.21071 21.0391 3.58579 21.4142C3.96086 21.7893 4.46957 22 5 22H19C19.5304 22 20.0391 21.7893 20.4142 21.4142C20.7893 21.0391 21 20.5304 21 20V9L12 2Z" stroke="black" stroke-width="1.5" stroke-linecap="round" stroke-linejoin="round"/>
<path fill-rule="evenodd" clip-rule="evenodd" d="M12 21.5H20.5V9L12 2.5L3 9V21.5H12ZM12.75 20.0781C12.75 20.0781 12.6719 20.75 12 20.75C11.3281 20.75 11.25 20.0781 11.25 20.0781V15.9141C11.25 15.9141 11.332 15.25 12 15.25C12.668 15.25 12.75 15.9141 12.75 15.9141V20.0781Z" fill="black"/>
</svg>
