<svg width="25" height="25" viewBox="0 0 25 25" fill="none" xmlns="http://www.w3.org/2000/svg">
<path d="M18.4444 11.4585H7.55556C6.69645 11.4585 6 12.2216 6 13.163V19.129C6 20.0703 6.69645 20.8335 7.55556 20.8335H18.4444C19.3036 20.8335 20 20.0703 20 19.129V13.163C20 12.2216 19.3036 11.4585 18.4444 11.4585Z" stroke="white" stroke-width="1.8" stroke-linecap="round" stroke-linejoin="round"/>
<path d="M9 11.4582V8.21743C9 7.14306 9.42143 6.11269 10.1716 5.35299C10.9217 4.5933 11.9391 4.1665 13 4.1665C14.0609 4.1665 15.0783 4.5933 15.8284 5.35299C16.5786 6.11269 17 7.14306 17 8.21743V11.4582" stroke="white" stroke-width="1.5" stroke-linecap="round" stroke-linejoin="round"/>
</svg>
