<svg width="23" height="23" viewBox="0 0 23 23" fill="none" xmlns="http://www.w3.org/2000/svg">
<path d="M0.99141 10.952L4.6438 4.42963L5.86125 19.0716L1.12667 14.2797C0.31503 13.3479 0.315033 12.0168 0.99141 10.952Z" fill="#16E4B8"/>
<path d="M4.6438 4.42963L5.14208 4.3882C5.12387 4.16912 4.9647 3.98764 4.74987 3.94101C4.53504 3.89437 4.31495 3.99352 4.20754 4.18533L4.6438 4.42963ZM0.99141 10.952L1.41347 11.22L1.4209 11.2083L1.42767 11.1963L0.99141 10.952ZM1.12667 14.2797L0.749645 14.6081L0.759956 14.6199L0.770991 14.6311L1.12667 14.2797ZM5.86125 19.0716L5.50558 19.423C5.65343 19.5727 5.87912 19.6137 6.07022 19.5258C6.26132 19.4379 6.37697 19.2398 6.35953 19.0302L5.86125 19.0716ZM4.6438 4.42963L4.20754 4.18533L0.555154 10.7077L0.99141 10.952L1.42767 11.1963L5.08006 4.67392L4.6438 4.42963ZM0.99141 10.952L0.569352 10.6839C-0.204421 11.9021 -0.231928 13.4812 0.749645 14.6081L1.12667 14.2797L1.50369 13.9513C0.861989 13.2146 0.834487 12.1316 1.41347 11.22L0.99141 10.952ZM1.12667 14.2797L0.770991 14.6311L5.50558 19.423L5.86125 19.0716L6.21693 18.7202L1.48234 13.9283L1.12667 14.2797ZM5.86125 19.0716L6.35953 19.0302L5.14208 4.3882L4.6438 4.42963L4.14552 4.47106L5.36297 19.113L5.86125 19.0716Z" fill="#16E4B8"/>
<path d="M14.7892 1.10191L19.2533 5.36139L4.6437 4.42964L11.6779 0.835684C12.6249 0.436339 13.8423 0.436375 14.7892 1.10191Z" fill="#0084D4"/>
<path d="M19.2533 5.36139L19.2203 5.86029C19.4302 5.87368 19.6263 5.75436 19.711 5.56175C19.7957 5.36913 19.7509 5.14438 19.599 4.99939L19.2533 5.36139ZM14.7892 1.10191L15.1349 0.739913L15.108 0.714178L15.0775 0.69274L14.7892 1.10191ZM11.6779 0.835684L11.4844 0.375135L11.4675 0.382275L11.4511 0.390636L11.6779 0.835684ZM4.6437 4.42964L4.41691 3.98459C4.21626 4.0871 4.10858 4.31086 4.15383 4.53122C4.19909 4.75158 4.38612 4.91422 4.61076 4.92855L4.6437 4.42964ZM19.2533 5.36139L19.599 4.99939L15.1349 0.739913L14.7892 1.10191L14.4435 1.46391L18.9076 5.72339L19.2533 5.36139ZM14.7892 1.10191L15.0775 0.69274C13.963 -0.0905859 12.5575 -0.0774017 11.4844 0.375135L11.6779 0.835684L11.8714 1.29623C12.6923 0.95008 13.7217 0.963336 14.501 1.51109L14.7892 1.10191ZM11.6779 0.835684L11.4511 0.390636L4.41691 3.98459L4.6437 4.42964L4.8705 4.87469L11.9047 1.28073L11.6779 0.835684ZM4.6437 4.42964L4.61076 4.92855L19.2203 5.86029L19.2533 5.36139L19.2862 4.86248L4.67665 3.93073L4.6437 4.42964Z" fill="#0084D4"/>
<path d="M22.4999 9.75398V15.7439C22.3646 16.4094 21.9588 16.9419 21.1472 17.2081H17.8203L4.6438 4.42963H16.8184C18.4417 4.42963 18.7122 4.82895 19.5239 5.62761L21.6883 7.75735C22.2293 8.42289 22.4999 8.82222 22.4999 9.75398Z" fill="#16E4B8"/>
<path d="M22.4999 15.7439H22.9999V15.7942L22.9899 15.8435L22.4999 15.7439ZM21.6883 7.75735L22.0389 7.40095L22.0587 7.42041L22.0762 7.44193L21.6883 7.75735ZM19.5239 5.62761L19.1732 5.984L19.1732 5.984L19.5239 5.62761ZM4.6438 4.42963L4.29571 4.78856C4.14953 4.6468 4.10393 4.43055 4.18041 4.24183C4.25689 4.05311 4.44017 3.92963 4.6438 3.92963V4.42963ZM17.8203 17.2081V17.7081H17.6176L17.4722 17.567L17.8203 17.2081ZM21.1472 17.2081L21.303 17.6832L21.2271 17.7081H21.1472V17.2081ZM22.4999 15.7439H21.9999V9.75398H22.4999H22.9999V15.7439H22.4999ZM22.4999 9.75398H21.9999C21.9999 9.34084 21.9407 9.08169 21.8413 8.86165C21.7358 8.62807 21.572 8.40696 21.3003 8.07276L21.6883 7.75735L22.0762 7.44193C22.3456 7.77328 22.5876 8.08461 22.7527 8.45001C22.9238 8.82897 22.9999 9.23535 22.9999 9.75398H22.4999ZM21.6883 7.75735L21.3376 8.11374L19.1732 5.984L19.5239 5.62761L19.8746 5.27121L22.0389 7.40095L21.6883 7.75735ZM19.5239 5.62761L19.1732 5.984C18.7346 5.55245 18.5302 5.32594 18.2391 5.16968C17.9722 5.02645 17.5945 4.92963 16.8184 4.92963V4.42963V3.92963C17.6656 3.92963 18.2348 4.03246 18.712 4.28857C19.1648 4.53163 19.5015 4.90411 19.8746 5.27121L19.5239 5.62761ZM16.8184 4.42963V4.92963H4.6438V4.42963V3.92963H16.8184V4.42963ZM4.6438 4.42963L4.99189 4.07069L18.1684 16.8491L17.8203 17.2081L17.4722 17.567L4.29571 4.78856L4.6438 4.42963ZM17.8203 17.2081V16.7081H21.1472V17.2081V17.7081H17.8203V17.2081ZM21.1472 17.2081L20.9913 16.733C21.6285 16.524 21.9097 16.1376 22.0099 15.6443L22.4999 15.7439L22.9899 15.8435C22.8196 16.6813 22.2891 17.3597 21.303 17.6832L21.1472 17.2081Z" fill="#16E4B8"/>
<path d="M10.0547 22H16.142C16.8184 21.8669 17.3595 21.4676 17.63 20.6689V17.3652L4.6438 4.42963V16.4094C4.6438 18.0067 5.04962 18.2729 5.86126 19.0716L8.02563 21.2013C8.702 21.7338 9.10782 22 10.0547 22Z" fill="#0084D4"/>
<path d="M16.142 22V22.5H16.1908L16.2386 22.4906L16.142 22ZM8.02563 21.2013L7.67494 21.5577L7.69465 21.5771L7.71636 21.5942L8.02563 21.2013ZM5.86126 19.0716L6.21195 18.7152L6.21195 18.7152L5.86126 19.0716ZM4.6438 4.42963L4.99666 4.07538C4.85351 3.93279 4.6386 3.89037 4.45201 3.96787C4.26541 4.04538 4.1438 4.22757 4.1438 4.42963H4.6438ZM17.63 17.3652H18.13V17.1575L17.9829 17.011L17.63 17.3652ZM17.63 20.6689L18.1036 20.8293C18.1211 20.7776 18.13 20.7235 18.13 20.6689H17.63ZM16.142 22V21.5H10.0547V22V22.5H16.142V22ZM10.0547 22V21.5C9.63214 21.5 9.36556 21.4413 9.13908 21.3422C8.89987 21.2376 8.67421 21.0756 8.33491 20.8085L8.02563 21.2013L7.71636 21.5942C8.05342 21.8595 8.36886 22.0968 8.73839 22.2584C9.12063 22.4256 9.53042 22.5 10.0547 22.5V22ZM8.02563 21.2013L8.37633 20.8449L6.21195 18.7152L5.86126 19.0716L5.51057 19.428L7.67494 21.5577L8.02563 21.2013ZM5.86126 19.0716L6.21195 18.7152C5.77283 18.2831 5.54345 18.0826 5.38547 17.7976C5.24185 17.5385 5.1438 17.1709 5.1438 16.4094H4.6438H4.1438C4.1438 17.2452 4.24866 17.8094 4.51086 18.2824C4.7587 18.7295 5.13805 19.0614 5.51057 19.428L5.86126 19.0716ZM4.6438 16.4094H5.1438V4.42963H4.6438H4.1438V16.4094H4.6438ZM4.6438 4.42963L4.29094 4.78387L17.2772 17.7194L17.63 17.3652L17.9829 17.011L4.99666 4.07538L4.6438 4.42963ZM17.63 17.3652H17.13V20.6689H17.63H18.13V17.3652H17.63ZM17.63 20.6689L17.1565 20.5085C16.9466 21.128 16.5562 21.4089 16.0455 21.5094L16.142 22L16.2386 22.4906C17.0807 22.3249 17.7724 21.8071 18.1036 20.8293L17.63 20.6689Z" fill="#0084D4"/>
</svg>
